<svg width="918" height="365" viewBox="0 0 918 365" fill="none" xmlns="http://www.w3.org/2000/svg">
<g clip-path="url(#clip0_4_184)">
<path d="M753.576 220.627H606.089C601.088 220.621 596.293 218.684 592.756 215.241C589.22 211.798 587.23 207.129 587.225 202.26V33.6177C587.23 28.7481 589.22 24.0796 592.756 20.6363C596.293 17.1931 601.088 15.2562 606.089 15.2507H743.301L772.44 37.8637V202.26C772.435 207.129 770.445 211.798 766.909 215.241C763.372 218.684 758.577 220.621 753.576 220.627Z" fill="#E6E6E6"/>
<path d="M605.8 23.3844C602.224 23.3882 598.796 24.7416 596.268 27.1476C593.739 29.5536 592.317 32.8157 592.313 36.2182V201.693C592.317 205.095 593.739 208.357 596.268 210.763C598.796 213.169 602.224 214.523 605.8 214.526H753.865C757.441 214.523 760.869 213.169 763.397 210.763C765.926 208.357 767.348 205.095 767.352 201.693V42.8839L741.644 23.3844H605.8Z" fill="white"/>
<path d="M725.556 56.1032H658.01C657.595 56.1032 657.184 56.0215 656.801 55.8628C656.417 55.7041 656.069 55.4714 655.776 55.1781C655.482 54.8847 655.249 54.5365 655.091 54.1533C654.932 53.7701 654.85 53.3593 654.85 52.9445C654.85 52.5297 654.932 52.1189 655.091 51.7357C655.249 51.3524 655.482 51.0042 655.776 50.7109C656.069 50.4176 656.417 50.1849 656.801 50.0262C657.184 49.8674 657.595 49.7857 658.01 49.7857H725.556C725.971 49.7857 726.382 49.8674 726.765 50.0262C727.149 50.1849 727.497 50.4176 727.79 50.7109C728.084 51.0042 728.316 51.3524 728.475 51.7357C728.634 52.1189 728.716 52.5297 728.716 52.9445C728.716 53.3593 728.634 53.7701 728.475 54.1533C728.316 54.5365 728.084 54.8847 727.79 55.1781C727.497 55.4714 727.149 55.7041 726.765 55.8628C726.382 56.0215 725.971 56.1032 725.556 56.1032V56.1032Z" fill="#CCCCCC"/>
<path d="M738.591 66.7641H658.01C657.172 66.7641 656.368 66.4313 655.776 65.8389C655.183 65.2465 654.85 64.4431 654.85 63.6053C654.85 62.7676 655.183 61.9641 655.776 61.3717C656.368 60.7793 657.172 60.4465 658.01 60.4465H738.591C739.429 60.4465 740.233 60.7793 740.825 61.3717C741.418 61.9641 741.751 62.7676 741.751 63.6053C741.751 64.4431 741.418 65.2465 740.825 65.8389C740.233 66.4313 739.429 66.7641 738.591 66.7641Z" fill="#CCCCCC"/>
<path d="M725.556 103.88H658.01C657.172 103.88 656.368 103.547 655.776 102.954C655.183 102.362 654.85 101.559 654.85 100.721C654.85 99.883 655.183 99.0796 655.776 98.4872C656.368 97.8948 657.172 97.562 658.01 97.562H725.556C726.394 97.562 727.198 97.8948 727.79 98.4872C728.383 99.0796 728.716 99.883 728.716 100.721C728.716 101.559 728.383 102.362 727.79 102.954C727.198 103.547 726.394 103.88 725.556 103.88Z" fill="#CCCCCC"/>
<path d="M738.591 114.54H658.01C657.172 114.54 656.368 114.208 655.776 113.615C655.183 113.023 654.85 112.219 654.85 111.382C654.85 110.544 655.183 109.74 655.776 109.148C656.368 108.556 657.172 108.223 658.01 108.223H738.591C739.429 108.223 740.233 108.556 740.825 109.148C741.418 109.74 741.751 110.544 741.751 111.382C741.751 112.219 741.418 113.023 740.825 113.615C740.233 114.208 739.429 114.54 738.591 114.54Z" fill="#CCCCCC"/>
<path d="M725.556 151.656H658.01C657.172 151.656 656.368 151.323 655.776 150.731C655.183 150.138 654.85 149.335 654.85 148.497C654.85 147.659 655.183 146.856 655.776 146.263C656.368 145.671 657.172 145.338 658.01 145.338H725.556C726.394 145.338 727.198 145.671 727.79 146.263C728.383 146.856 728.716 147.659 728.716 148.497C728.716 149.335 728.383 150.138 727.79 150.731C727.198 151.323 726.394 151.656 725.556 151.656Z" fill="#CCCCCC"/>
<path d="M738.591 162.317H658.01C657.172 162.317 656.368 161.984 655.776 161.391C655.183 160.799 654.85 159.996 654.85 159.158C654.85 158.32 655.183 157.517 655.776 156.924C656.368 156.332 657.172 155.999 658.01 155.999H738.591C739.429 155.999 740.233 156.332 740.825 156.924C741.418 157.517 741.751 158.32 741.751 159.158C741.751 159.996 741.418 160.799 740.825 161.391C740.233 161.984 739.429 162.317 738.591 162.317V162.317Z" fill="#CCCCCC"/>
<path d="M629.882 69.4394C636.051 69.4394 641.051 64.4409 641.051 58.2749C641.051 52.1089 636.051 47.1104 629.882 47.1104C623.714 47.1104 618.713 52.1089 618.713 58.2749C618.713 64.4409 623.714 69.4394 629.882 69.4394Z" fill="#6C63FF"/>
<path d="M628.776 62.5338C628.524 62.5342 628.28 62.453 628.079 62.3023L628.066 62.293L625.441 60.2858C625.196 60.0976 625.036 59.8197 624.995 59.5133C624.955 59.2069 625.038 58.897 625.226 58.6517C625.414 58.4064 625.692 58.2458 625.999 58.2052C626.305 58.1646 626.615 58.2473 626.861 58.4351L628.561 59.7384L632.579 54.4991C632.672 54.3776 632.788 54.2757 632.92 54.1991C633.053 54.1225 633.199 54.0728 633.351 54.0527C633.503 54.0327 633.657 54.0427 633.805 54.0823C633.953 54.1218 634.092 54.1901 634.213 54.2832L634.214 54.2835L634.189 54.3181L634.214 54.2835C634.459 54.4718 634.62 54.7497 634.66 55.0561C634.701 55.3625 634.618 55.6725 634.43 55.9179L629.704 62.0777C629.595 62.2196 629.455 62.3345 629.294 62.4133C629.133 62.4922 628.956 62.533 628.777 62.5324L628.776 62.5338Z" fill="white"/>
<path d="M631.032 117.216C637.201 117.216 642.201 112.217 642.201 106.051C642.201 99.8852 637.201 94.8867 631.032 94.8867C624.864 94.8867 619.863 99.8852 619.863 106.051C619.863 112.217 624.864 117.216 631.032 117.216Z" fill="#CCCCCC"/>
<path d="M629.882 164.992C636.051 164.992 641.051 159.993 641.051 153.827C641.051 147.662 636.051 142.663 629.882 142.663C623.714 142.663 618.713 147.662 618.713 153.827C618.713 159.993 623.714 164.992 629.882 164.992Z" fill="#CCCCCC"/>
<path d="M617.39 244.735L529.613 263.23C527.077 263.761 524.433 263.265 522.261 261.85C520.09 260.436 518.569 258.218 518.032 255.683L502.969 184.253C502.438 181.717 502.934 179.074 504.349 176.904C505.764 174.734 507.983 173.213 510.519 172.676L598.295 154.182C600.832 153.65 603.476 154.146 605.647 155.561C607.818 156.976 609.339 159.193 609.877 161.728L624.939 233.158C625.471 235.694 624.975 238.337 623.559 240.507C622.144 242.677 619.925 244.198 617.39 244.735Z" fill="white"/>
<path d="M617.39 244.735L529.613 263.23C527.077 263.761 524.433 263.265 522.261 261.85C520.09 260.436 518.569 258.218 518.032 255.683L502.969 184.253C502.438 181.717 502.934 179.074 504.349 176.904C505.764 174.734 507.983 173.213 510.519 172.676L598.295 154.182C600.832 153.65 603.476 154.146 605.647 155.561C607.818 156.976 609.339 159.193 609.877 161.728L624.939 233.158C625.471 235.694 624.975 238.337 623.559 240.507C622.144 242.677 619.925 244.198 617.39 244.735ZM510.756 173.801C508.519 174.275 506.561 175.617 505.312 177.532C504.063 179.447 503.626 181.779 504.095 184.016L519.157 255.446C519.631 257.683 520.973 259.639 522.889 260.888C524.805 262.136 527.138 262.574 529.376 262.105L617.153 243.61C619.39 243.136 621.347 241.795 622.596 239.88C623.845 237.965 624.283 235.633 623.814 233.395L608.751 161.965C608.277 159.729 606.935 157.772 605.019 156.524C603.103 155.275 600.771 154.838 598.532 155.307L510.756 173.801Z" fill="#3F3D56"/>
<path d="M592.841 177.734L548.542 187.068C548.154 187.158 547.747 187.098 547.402 186.899C547.057 186.7 546.801 186.378 546.685 185.997C546.632 185.799 546.619 185.592 546.649 185.388C546.679 185.185 546.749 184.99 546.857 184.815C546.965 184.64 547.107 184.489 547.275 184.37C547.443 184.252 547.633 184.169 547.834 184.127L592.928 174.625C594.689 175.617 594.133 177.462 592.841 177.734L592.841 177.734Z" fill="#CCCCCC"/>
<path d="M594.479 185.502L550.18 194.835C549.792 194.925 549.384 194.865 549.04 194.666C548.695 194.467 548.439 194.145 548.323 193.765C548.269 193.566 548.257 193.359 548.287 193.156C548.317 192.952 548.387 192.757 548.495 192.582C548.602 192.407 548.744 192.256 548.912 192.138C549.08 192.019 549.271 191.936 549.472 191.894L594.566 182.393C596.327 183.385 595.77 185.23 594.479 185.502L594.479 185.502Z" fill="#CCCCCC"/>
<path d="M541.536 201.276L528.016 204.124C527.574 204.217 527.114 204.131 526.736 203.884C526.358 203.638 526.093 203.252 526 202.811L522.637 186.863C522.544 186.421 522.631 185.961 522.877 185.584C523.123 185.206 523.51 184.941 523.951 184.848L537.471 181.999C537.912 181.907 538.372 181.993 538.75 182.239C539.128 182.485 539.393 182.871 539.487 183.313L542.85 199.261C542.942 199.702 542.856 200.162 542.609 200.54C542.363 200.918 541.977 201.182 541.536 201.276V201.276Z" fill="#CCCCCC"/>
<path d="M597.704 201.432L530.094 215.678C529.707 215.768 529.299 215.707 528.955 215.508C528.61 215.309 528.354 214.987 528.238 214.607C528.184 214.408 528.172 214.201 528.202 213.998C528.232 213.795 528.302 213.6 528.41 213.424C528.517 213.249 528.659 213.098 528.827 212.98C528.995 212.861 529.186 212.779 529.387 212.736L597.791 198.324C599.552 199.315 598.996 201.16 597.704 201.432V201.432Z" fill="#CCCCCC"/>
<path d="M599.342 209.202L531.733 223.447C531.345 223.537 530.938 223.477 530.593 223.278C530.248 223.079 529.992 222.757 529.876 222.376C529.823 222.178 529.811 221.971 529.84 221.768C529.87 221.564 529.941 221.369 530.048 221.194C530.156 221.019 530.298 220.868 530.466 220.749C530.634 220.631 530.824 220.548 531.025 220.506L599.43 206.093C601.191 207.085 600.634 208.93 599.342 209.202Z" fill="#CCCCCC"/>
<path d="M600.98 216.967L533.37 231.212C532.982 231.302 532.575 231.241 532.23 231.042C531.886 230.844 531.629 230.521 531.513 230.141C531.46 229.942 531.448 229.735 531.478 229.532C531.507 229.329 531.578 229.134 531.685 228.959C531.793 228.784 531.935 228.632 532.103 228.514C532.271 228.396 532.461 228.313 532.662 228.27L601.067 213.858C602.828 214.85 602.271 216.694 600.98 216.967V216.967Z" fill="#CCCCCC"/>
<path d="M602.618 224.736L535.008 238.981C534.621 239.071 534.213 239.01 533.869 238.811C533.524 238.613 533.268 238.29 533.151 237.91C533.098 237.711 533.086 237.504 533.116 237.301C533.145 237.098 533.216 236.903 533.324 236.728C533.431 236.553 533.573 236.401 533.741 236.283C533.909 236.165 534.1 236.082 534.301 236.039L602.705 221.627C604.466 222.619 603.91 224.463 602.618 224.736V224.736Z" fill="#CCCCCC"/>
<path d="M604.255 232.501L536.646 246.746C536.258 246.836 535.851 246.775 535.506 246.577C535.161 246.378 534.905 246.056 534.789 245.675C534.736 245.477 534.724 245.269 534.753 245.066C534.783 244.863 534.854 244.668 534.961 244.493C535.069 244.318 535.211 244.166 535.379 244.048C535.547 243.93 535.737 243.847 535.938 243.805L604.343 229.392C606.103 230.384 605.547 232.229 604.255 232.501V232.501Z" fill="#CCCCCC"/>
<path d="M616.19 196.939C616.036 197.218 615.905 197.508 615.797 197.808L588.119 204.673L583.303 199.694L574.836 205.976L582.503 215.618C583.123 216.397 583.978 216.955 584.941 217.206C585.904 217.458 586.923 217.39 587.845 217.014L617.878 204.746C618.865 205.473 620.05 205.882 621.276 205.918C622.501 205.955 623.708 205.618 624.737 204.952C625.766 204.286 626.568 203.323 627.036 202.19C627.504 201.058 627.616 199.81 627.357 198.612C627.097 197.415 626.48 196.324 625.586 195.486C624.692 194.648 623.563 194.102 622.351 193.92C621.139 193.738 619.9 193.93 618.799 194.469C617.699 195.009 616.789 195.87 616.19 196.94L616.19 196.939Z" fill="#A0616A"/>
<path d="M521.714 258.037C522.576 257.77 523.37 257.318 524.04 256.712C524.709 256.106 525.237 255.36 525.586 254.528C525.936 253.695 526.099 252.796 526.063 251.894C526.028 250.992 525.795 250.109 525.381 249.307L544.429 196.386L531.201 194.043L516.637 246.799C515.335 247.583 514.366 248.818 513.913 250.269C513.461 251.72 513.556 253.286 514.182 254.672C514.808 256.057 515.92 257.164 517.308 257.785C518.696 258.405 520.264 258.495 521.714 258.037V258.037Z" fill="#A0616A"/>
<path d="M542.01 205.78L528.949 200.77C528.578 200.627 528.241 200.406 527.963 200.122C527.684 199.838 527.47 199.497 527.336 199.122C527.201 198.748 527.148 198.349 527.182 197.952C527.215 197.556 527.334 197.171 527.529 196.825L534.381 184.682C535.121 182.786 536.584 181.26 538.448 180.44C540.312 179.62 542.425 179.573 544.324 180.308C546.223 181.043 547.753 182.5 548.578 184.361C549.404 186.222 549.458 188.334 548.728 190.234L545.706 203.798C545.619 204.186 545.45 204.551 545.209 204.868C544.969 205.185 544.663 205.447 544.312 205.635C543.961 205.823 543.574 205.933 543.177 205.959C542.779 205.984 542.381 205.923 542.01 205.78V205.78Z" fill="#6C63FF"/>
<path d="M571.489 357.393L578.539 357.392L581.893 330.211L571.488 330.212L571.489 357.393Z" fill="#A0616A"/>
<path d="M569.691 355.092L583.574 355.092H583.575C584.737 355.092 585.887 355.32 586.961 355.765C588.034 356.209 589.009 356.861 589.831 357.682C590.653 358.503 591.304 359.478 591.749 360.551C592.194 361.624 592.422 362.774 592.422 363.936V364.223L569.691 364.224L569.691 355.092Z" fill="#2F2E41"/>
<path d="M531.812 357.393L538.862 357.392L542.215 330.211L531.81 330.212L531.812 357.393Z" fill="#A0616A"/>
<path d="M530.013 355.092L543.897 355.092H543.897C545.059 355.092 546.21 355.32 547.283 355.765C548.357 356.209 549.332 356.861 550.154 357.682C550.975 358.503 551.627 359.478 552.072 360.551C552.516 361.624 552.745 362.774 552.745 363.936V364.223L530.014 364.224L530.013 355.092Z" fill="#2F2E41"/>
<path d="M539.202 346.453H530.281C529.931 346.453 529.584 346.382 529.262 346.244C528.94 346.106 528.65 345.904 528.408 345.651C528.166 345.398 527.979 345.098 527.856 344.77C527.734 344.442 527.679 344.093 527.696 343.743L531.934 252.734L532.201 252.726L575.282 251.604L583.712 342.666C583.744 343.007 583.709 343.351 583.607 343.679C583.505 344.006 583.339 344.31 583.118 344.573C582.898 344.835 582.627 345.052 582.322 345.209C582.017 345.366 581.684 345.461 581.342 345.488L571.322 346.29C570.692 346.34 570.066 346.158 569.561 345.779C569.056 345.399 568.708 344.849 568.58 344.231L555.763 279.406C555.728 279.209 555.623 279.032 555.468 278.905C555.313 278.779 555.118 278.712 554.918 278.717H554.915C554.714 278.713 554.518 278.78 554.363 278.908C554.209 279.036 554.105 279.215 554.071 279.413L541.741 344.366C541.624 344.953 541.308 345.482 540.845 345.863C540.382 346.243 539.801 346.452 539.202 346.453V346.453Z" fill="#2F2E41"/>
<path d="M555.544 171.564C563.345 171.564 569.668 165.244 569.668 157.447C569.668 149.65 563.345 143.329 555.544 143.329C547.744 143.329 541.421 149.65 541.421 157.447C541.421 165.244 547.744 171.564 555.544 171.564Z" fill="#A0616A"/>
<path d="M550.809 263.399C544.077 263.399 537.163 261.63 531.431 256.401C531.126 256.124 530.891 255.78 530.744 255.395C530.597 255.011 530.543 254.597 530.586 254.188C531.2 248.678 534.176 220.228 532.5 201.224C532.173 197.674 532.675 194.097 533.968 190.774C535.261 187.452 537.309 184.476 539.95 182.08C542.544 179.69 545.659 177.935 549.048 176.954C552.437 175.973 556.008 175.793 559.479 176.427H559.479C559.655 176.459 559.831 176.492 560.007 176.526C571.314 178.713 579.17 189.173 578.281 200.858C576.984 217.906 575.821 240.967 577.647 254.008C577.723 254.542 577.63 255.086 577.381 255.564C577.132 256.042 576.739 256.43 576.259 256.674C572.104 258.772 561.695 263.399 550.809 263.399Z" fill="#6C63FF"/>
<path d="M569.238 206.796C568.907 206.576 568.627 206.286 568.417 205.948C568.208 205.61 568.074 205.23 568.025 204.835L566.304 191.046C565.758 189.085 566.012 186.987 567.011 185.213C568.009 183.439 569.671 182.133 571.631 181.581C573.591 181.03 575.69 181.278 577.468 182.271C579.246 183.264 580.557 184.922 581.114 186.879L586.782 199.618C586.943 199.981 587.025 200.375 587.02 200.773C587.016 201.171 586.926 201.563 586.756 201.923C586.586 202.283 586.341 202.602 586.037 202.859C585.733 203.115 585.377 203.303 584.993 203.41L571.516 207.159C571.133 207.266 570.731 207.289 570.337 207.226C569.944 207.163 569.569 207.017 569.238 206.796V206.796Z" fill="#6C63FF"/>
<path d="M550.614 171.365C549.277 171.39 547.949 171.15 546.705 170.658C546.158 170.447 545.59 170.274 545.044 170.063C540.222 168.201 537.045 163.067 536.931 157.9C536.817 152.734 539.494 147.719 543.469 144.414C547.444 141.109 552.592 139.412 557.747 139.02C563.3 138.597 569.552 140.005 572.655 144.628C573.481 145.858 574.059 147.351 573.569 148.837C573.423 149.285 573.161 149.687 572.81 150.002C571.425 151.235 570.043 150.308 568.63 150.226C566.689 150.114 564.945 151.685 564.318 153.525C563.691 155.365 563.967 157.391 564.473 159.269C564.859 160.398 565.102 161.571 565.197 162.761C565.238 163.358 565.125 163.955 564.871 164.496C564.616 165.037 564.227 165.504 563.742 165.853C562.528 166.586 560.935 166.161 559.721 165.43C558.507 164.698 557.458 163.68 556.147 163.141C554.835 162.603 553.074 162.722 552.31 163.917C552.068 164.351 551.904 164.825 551.825 165.316C551.141 168.432 551.298 168.249 550.614 171.365V171.365Z" fill="#2F2E41"/>
<path d="M892.638 246.378L814.4 290.245C812.139 291.51 809.467 291.826 806.972 291.125C804.477 290.423 802.363 288.761 801.092 286.503L765.365 222.835C764.1 220.574 763.783 217.904 764.485 215.41C765.187 212.916 766.85 210.802 769.109 209.532L847.346 165.665C849.608 164.4 852.28 164.083 854.775 164.785C857.27 165.486 859.384 167.149 860.655 169.407L896.382 233.075C897.647 235.336 897.964 238.006 897.262 240.5C896.56 242.994 894.897 245.108 892.638 246.378V246.378Z" fill="white"/>
<path d="M892.638 246.378L814.4 290.245C812.139 291.51 809.467 291.826 806.972 291.125C804.477 290.423 802.363 288.761 801.092 286.503L765.365 222.835C764.1 220.574 763.783 217.904 764.485 215.41C765.187 212.916 766.85 210.802 769.109 209.532L847.346 165.665C849.608 164.4 852.28 164.083 854.775 164.785C857.27 165.486 859.384 167.149 860.655 169.407L896.382 233.075C897.647 235.336 897.964 238.006 897.262 240.5C896.56 242.994 894.897 245.108 892.638 246.378V246.378ZM769.671 210.535C767.678 211.655 766.211 213.52 765.592 215.721C764.973 217.921 765.252 220.278 766.368 222.273L802.095 285.941C803.216 287.933 805.082 289.4 807.284 290.019C809.485 290.638 811.842 290.358 813.838 289.242L892.076 245.375C894.069 244.254 895.536 242.389 896.155 240.189C896.774 237.988 896.495 235.632 895.379 233.637L859.652 169.969C858.531 167.977 856.665 166.51 854.463 165.891C852.262 165.272 849.905 165.551 847.909 166.667L769.671 210.535Z" fill="#3F3D56"/>
<path d="M849.182 189.77L809.697 211.91C809.354 212.111 808.947 212.175 808.559 212.088C808.17 212.002 807.829 211.771 807.605 211.442C807.495 211.269 807.421 211.075 807.389 210.872C807.356 210.669 807.365 210.462 807.416 210.263C807.466 210.063 807.556 209.877 807.681 209.713C807.806 209.55 807.963 209.414 808.142 209.314L848.336 186.777C850.313 187.198 850.333 189.125 849.182 189.77L849.182 189.77Z" fill="#CCCCCC"/>
<path d="M853.067 196.693L813.582 218.833C813.239 219.034 812.832 219.098 812.444 219.012C812.055 218.925 811.714 218.694 811.49 218.366C811.38 218.192 811.306 217.998 811.274 217.795C811.241 217.592 811.25 217.385 811.301 217.186C811.351 216.987 811.441 216.8 811.566 216.637C811.691 216.474 811.848 216.338 812.027 216.237L852.221 193.701C854.198 194.121 854.218 196.048 853.067 196.694L853.067 196.693Z" fill="#CCCCCC"/>
<path d="M807.258 227.561L795.207 234.317C794.814 234.538 794.349 234.593 793.914 234.471C793.48 234.348 793.112 234.059 792.891 233.666L784.914 219.451C784.694 219.058 784.639 218.593 784.761 218.159C784.883 217.724 785.173 217.357 785.566 217.136L797.617 210.379C798.01 210.159 798.475 210.104 798.909 210.226C799.344 210.348 799.712 210.637 799.933 211.03L807.91 225.245C808.13 225.639 808.185 226.104 808.063 226.538C807.941 226.972 807.651 227.34 807.258 227.561L807.258 227.561Z" fill="#CCCCCC"/>
<path d="M860.907 210.933L800.645 244.722C800.302 244.923 799.895 244.987 799.507 244.901C799.118 244.814 798.777 244.583 798.553 244.255C798.443 244.081 798.369 243.887 798.337 243.684C798.304 243.481 798.313 243.274 798.364 243.075C798.414 242.876 798.504 242.689 798.629 242.526C798.754 242.363 798.911 242.227 799.09 242.126L860.061 207.94C862.038 208.361 862.058 210.288 860.907 210.933Z" fill="#CCCCCC"/>
<path d="M864.793 217.858L804.531 251.647C804.188 251.849 803.781 251.913 803.393 251.826C803.004 251.739 802.663 251.508 802.439 251.18C802.329 251.006 802.255 250.812 802.223 250.609C802.19 250.407 802.199 250.199 802.25 250C802.3 249.801 802.39 249.614 802.515 249.451C802.64 249.288 802.797 249.152 802.976 249.052L863.947 214.865C865.924 215.286 865.944 217.213 864.793 217.858V217.858Z" fill="#CCCCCC"/>
<path d="M868.677 224.779L808.414 258.568C808.071 258.77 807.665 258.833 807.276 258.747C806.888 258.66 806.547 258.429 806.322 258.101C806.212 257.927 806.139 257.733 806.106 257.53C806.074 257.327 806.083 257.12 806.133 256.921C806.183 256.722 806.274 256.535 806.399 256.372C806.524 256.209 806.681 256.073 806.86 255.972L867.831 221.786C869.808 222.207 869.828 224.134 868.677 224.779V224.779Z" fill="#CCCCCC"/>
<path d="M872.562 231.704L812.3 265.493C811.957 265.694 811.55 265.758 811.162 265.671C810.774 265.585 810.433 265.354 810.208 265.025C810.098 264.852 810.025 264.658 809.992 264.455C809.96 264.252 809.969 264.045 810.019 263.846C810.069 263.647 810.16 263.46 810.285 263.297C810.41 263.134 810.566 262.998 810.746 262.897L871.717 228.711C873.693 229.132 873.714 231.058 872.563 231.704H872.562Z" fill="#CCCCCC"/>
<path d="M876.446 238.625L816.184 272.414C815.841 272.616 815.434 272.68 815.046 272.593C814.657 272.506 814.316 272.275 814.092 271.947C813.982 271.773 813.908 271.579 813.876 271.376C813.843 271.173 813.853 270.966 813.903 270.767C813.953 270.568 814.044 270.381 814.168 270.218C814.293 270.055 814.45 269.919 814.629 269.818L875.6 235.632C877.577 236.053 877.598 237.98 876.446 238.625V238.625Z" fill="#CCCCCC"/>
<path d="M865.933 264.562C866.261 263.839 866.426 263.052 866.418 262.258C866.409 261.463 866.226 260.681 865.881 259.965C865.537 259.249 865.04 258.617 864.425 258.114C863.81 257.61 863.092 257.248 862.322 257.052L860.683 237.811L852.801 244.026L855.566 261.345C855.322 262.66 855.57 264.019 856.262 265.164C856.954 266.309 858.042 267.16 859.32 267.557C860.598 267.953 861.977 267.867 863.196 267.315C864.414 266.764 865.388 265.784 865.933 264.562V264.562Z" fill="#FFB8B8"/>
<path d="M860.832 255.037L854.286 255.817C853.954 255.857 853.616 255.828 853.296 255.731C852.975 255.634 852.678 255.472 852.423 255.256C852.167 255.039 851.96 254.772 851.813 254.471C851.666 254.17 851.582 253.842 851.568 253.508L850.613 231.434L838.205 197.552C837.708 196.5 837.481 195.342 837.546 194.181C837.61 193.019 837.964 191.893 838.574 190.903C838.878 190.424 839.226 189.975 839.614 189.562C840.377 188.74 841.329 188.114 842.386 187.739C843.444 187.364 844.576 187.25 845.687 187.406C846.832 187.558 847.924 187.981 848.873 188.64C849.821 189.299 850.598 190.174 851.141 191.194L859.232 208.143C862.617 215.232 864.215 223.041 863.887 230.889L862.974 252.725C862.95 253.296 862.726 253.841 862.34 254.263C861.954 254.685 861.431 254.958 860.864 255.033L860.832 255.037Z" fill="#6C63FF"/>
<path d="M884.078 350.437L878.009 353.099L864.847 330.968L873.803 327.038L884.078 350.437Z" fill="#FFB8B8"/>
<path d="M888.208 355.638L868.64 364.224L868.531 363.977C868.092 362.977 867.854 361.9 867.832 360.809C867.809 359.717 868.001 358.632 868.398 357.614C868.795 356.597 869.388 355.668 870.144 354.88C870.9 354.092 871.804 353.46 872.804 353.021L872.805 353.021L884.756 347.777L888.208 355.638Z" fill="#2F2E41"/>
<path d="M802.602 357.802H795.974L792.821 332.248L802.603 332.248L802.602 357.802Z" fill="#FFB8B8"/>
<path d="M804.292 364.224L782.922 364.223V363.953C782.922 362.861 783.137 361.78 783.555 360.771C783.973 359.762 784.585 358.846 785.358 358.074C786.13 357.302 787.047 356.689 788.056 356.271C789.066 355.853 790.147 355.638 791.24 355.638H791.24L804.292 355.639L804.292 364.224Z" fill="#2F2E41"/>
<path d="M867.13 349.066L830.209 266.706C830.142 266.552 830.029 266.422 829.885 266.335C829.742 266.247 829.574 266.207 829.407 266.219C829.239 266.231 829.079 266.294 828.949 266.401C828.819 266.508 828.726 266.652 828.681 266.815L806.186 346.364C806.037 346.921 805.695 347.406 805.22 347.733C804.745 348.06 804.169 348.206 803.596 348.146L791.31 346.918C790.677 346.852 790.095 346.541 789.687 346.053C789.279 345.564 789.078 344.936 789.126 344.302C793.034 295.717 799.194 249.863 817.649 219.846L817.747 219.686L845.661 225.157L882.928 343.781C883.112 344.392 883.05 345.051 882.754 345.617C882.458 346.182 881.953 346.61 881.346 346.807L870.108 350.418C869.532 350.605 868.907 350.57 868.356 350.32C867.805 350.07 867.368 349.622 867.13 349.066V349.066Z" fill="#2F2E41"/>
<path d="M831.239 177.657C838.572 177.657 844.517 171.714 844.517 164.384C844.517 157.054 838.572 151.112 831.239 151.112C823.906 151.112 817.961 157.054 817.961 164.384C817.961 171.714 823.906 177.657 831.239 177.657Z" fill="#FFB8B8"/>
<path d="M815.933 222.143L815.764 222.108L815.724 221.941C813.935 214.39 813.892 206.15 815.597 197.451C816.462 193.004 818.868 189.006 822.393 186.159C825.918 183.312 830.334 181.8 834.865 181.888V181.888C839.781 181.988 844.473 183.962 847.981 187.406C851.489 190.849 853.548 195.503 853.737 200.415C854.306 215.378 848.188 228.35 848.127 228.48L848.036 228.67L815.933 222.143Z" fill="#6C63FF"/>
<path d="M780.339 247.394C781.125 247.277 781.876 246.99 782.539 246.553C783.202 246.115 783.762 245.537 784.177 244.86C784.593 244.183 784.855 243.423 784.945 242.634C785.035 241.844 784.951 241.045 784.698 240.292L799.992 228.493L790.496 225.237L777.429 236.94C776.191 237.448 775.183 238.392 774.595 239.593C774.007 240.795 773.88 242.17 774.239 243.458C774.597 244.747 775.416 245.859 776.541 246.585C777.665 247.31 779.016 247.598 780.339 247.394V247.394Z" fill="#FFB8B8"/>
<path d="M788.692 238.496C788.194 238.79 787.607 238.896 787.038 238.796C786.468 238.696 785.953 238.395 785.586 237.948L781.385 232.871C781.171 232.613 781.013 232.313 780.921 231.991C780.829 231.67 780.804 231.332 780.848 231C780.892 230.668 781.004 230.349 781.177 230.063C781.351 229.776 781.581 229.529 781.855 229.335L799.901 216.578L821.675 187.801C822.29 186.813 823.142 185.995 824.153 185.421C825.164 184.846 826.303 184.533 827.467 184.51C828.033 184.506 828.599 184.555 829.157 184.657V184.657C830.262 184.853 831.303 185.314 832.191 185.999C833.08 186.685 833.789 187.575 834.259 188.593C834.751 189.638 834.987 190.784 834.947 191.938C834.906 193.092 834.591 194.219 834.027 195.227L817.905 221.327L817.869 221.384L788.692 238.496Z" fill="#6C63FF"/>
<path d="M833.613 163.561C832.635 161.951 830.475 161.497 828.6 161.68C826.725 161.864 824.902 162.523 823.018 162.508C817.787 162.468 813.749 156.095 815.948 151.35C817.752 147.459 822.257 145.751 826.332 144.41C834.876 141.598 844.69 138.897 852.443 143.455C854.914 144.951 856.94 147.079 858.313 149.619C859.686 152.16 860.355 155.021 860.252 157.906C860.077 161.494 858.703 165.179 859.865 168.578C861.207 172.499 865.459 174.603 869.478 175.62C876.522 177.404 883.949 177.117 891.038 178.717C898.126 180.317 905.39 184.565 907.301 191.574C908.556 196.177 907.246 201.133 905.078 205.383C902.865 209.72 899.79 213.559 896.041 216.666C892.292 219.773 887.948 222.083 883.275 223.453C878.602 224.823 873.698 225.225 868.864 224.635C864.03 224.044 859.367 222.473 855.162 220.019C846.592 215.017 840.405 206.563 836.717 197.354C834.625 191.983 833.153 186.39 832.328 180.685C831.502 175.345 832.203 169.948 833.7 164.755C833.77 164.561 833.799 164.355 833.784 164.149C833.769 163.943 833.711 163.742 833.613 163.561Z" fill="#2F2E41"/>
</g>
<g clip-path="url(#clip1_4_184)">
<path d="M177.591 273.387C185.06 273.387 191.116 266.71 191.116 258.475C191.116 250.239 185.06 243.562 177.591 243.562C170.121 243.562 164.066 250.239 164.066 258.475C164.066 266.71 170.121 273.387 177.591 273.387Z" fill="#6C63FF"/>
<path d="M176.302 264.769L172.254 259.031L174.608 257.012L176.525 259.729L183 252.192L185.165 254.454L176.302 264.769Z" fill="white"/>
<path d="M436.038 121.988H234.979V74.6055H436.038V121.988Z" fill="white"/>
<path d="M436.038 121.988H234.979V74.6055H436.038V121.988Z" fill="white"/>
<path d="M261.032 110.333C267.061 110.333 271.948 104.944 271.948 98.2967C271.948 91.6491 267.061 86.2602 261.032 86.2602C255.002 86.2602 250.115 91.6491 250.115 98.2967C250.115 104.944 255.002 110.333 261.032 110.333Z" fill="#6C63FF"/>
<path d="M286.244 90.2724C285.762 90.2724 285.299 90.4837 284.958 90.8599C284.616 91.2362 284.425 91.7464 284.425 92.2785C284.425 92.8105 284.616 93.3208 284.958 93.697C285.299 94.0732 285.762 94.2846 286.244 94.2846H419.087C419.568 94.2833 420.03 94.0714 420.37 93.6953C420.711 93.3192 420.902 92.8097 420.902 92.2785C420.902 91.7472 420.711 91.2377 420.37 90.8616C420.03 90.4855 419.568 90.2736 419.087 90.2724H286.244Z" fill="#3F3D56"/>
<path d="M286.244 102.309C285.762 102.308 285.298 102.518 284.957 102.893C284.615 103.269 284.422 103.779 284.421 104.311C284.42 104.843 284.611 105.353 284.951 105.731C285.292 106.108 285.754 106.32 286.237 106.321H370.221C370.46 106.322 370.697 106.27 370.918 106.169C371.139 106.069 371.34 105.921 371.509 105.735C371.679 105.548 371.813 105.327 371.905 105.083C371.996 104.84 372.043 104.579 372.043 104.315C372.043 104.051 371.996 103.79 371.905 103.547C371.813 103.303 371.679 103.082 371.509 102.895C371.34 102.709 371.139 102.561 370.918 102.461C370.697 102.36 370.46 102.308 370.221 102.309H286.244Z" fill="#3F3D56"/>
<path d="M436.038 121.988H234.979V74.6055H436.038V121.988ZM238.048 118.604H432.969V77.9899H238.048V118.604Z" fill="#CCCCCC"/>
<path d="M436.038 181.216H234.979V133.834H436.038V181.216Z" fill="white"/>
<path d="M261.032 169.561C267.061 169.561 271.948 164.173 271.948 157.525C271.948 150.877 267.061 145.488 261.032 145.488C255.002 145.488 250.115 150.877 250.115 157.525C250.115 164.173 255.002 169.561 261.032 169.561Z" fill="#E6E6E6"/>
<path d="M286.244 149.501C285.762 149.501 285.299 149.712 284.958 150.088C284.616 150.464 284.425 150.975 284.425 151.507C284.425 152.039 284.616 152.549 284.958 152.925C285.299 153.301 285.762 153.513 286.244 153.513H419.087C419.568 153.511 420.03 153.3 420.37 152.923C420.711 152.547 420.902 152.038 420.902 151.507C420.902 150.975 420.711 150.466 420.37 150.09C420.03 149.714 419.568 149.502 419.087 149.501H286.244Z" fill="#E6E6E6"/>
<path d="M286.244 161.537C285.762 161.536 285.298 161.746 284.956 162.122C284.615 162.497 284.422 163.007 284.421 163.539C284.42 164.071 284.611 164.582 284.951 164.959C285.292 165.336 285.754 165.548 286.236 165.549H370.221C370.46 165.55 370.697 165.498 370.918 165.398C371.139 165.297 371.34 165.149 371.509 164.963C371.679 164.777 371.813 164.555 371.905 164.312C371.996 164.068 372.043 163.807 372.043 163.543C372.043 163.279 371.996 163.018 371.905 162.775C371.813 162.531 371.679 162.31 371.509 162.123C371.34 161.937 371.139 161.789 370.918 161.689C370.697 161.588 370.46 161.537 370.221 161.537H286.244Z" fill="#E6E6E6"/>
<path d="M436.038 181.216H234.979V133.834H436.038V181.216ZM238.048 177.832H432.969V137.218H238.048V177.832Z" fill="#E6E6E6"/>
<path d="M436.038 240.444H234.979V193.062H436.038V240.444Z" fill="white"/>
<path d="M261.032 228.79C267.061 228.79 271.948 223.401 271.948 216.753C271.948 210.106 267.061 204.717 261.032 204.717C255.002 204.717 250.115 210.106 250.115 216.753C250.115 223.401 255.002 228.79 261.032 228.79Z" fill="#E6E6E6"/>
<path d="M286.244 208.729C285.762 208.729 285.299 208.94 284.958 209.316C284.616 209.693 284.425 210.203 284.425 210.735C284.425 211.267 284.616 211.777 284.958 212.153C285.299 212.53 285.762 212.741 286.244 212.741H419.087C419.568 212.74 420.03 212.528 420.37 212.152C420.711 211.776 420.902 211.266 420.902 210.735C420.902 210.204 420.711 209.694 420.37 209.318C420.03 208.942 419.568 208.73 419.087 208.729H286.244Z" fill="#E6E6E6"/>
<path d="M286.244 220.765C285.762 220.764 285.298 220.974 284.956 221.35C284.615 221.725 284.422 222.235 284.421 222.767C284.42 223.299 284.611 223.81 284.951 224.187C285.292 224.564 285.754 224.776 286.236 224.777H370.221C370.46 224.778 370.697 224.726 370.918 224.626C371.139 224.525 371.34 224.377 371.509 224.191C371.679 224.005 371.813 223.783 371.905 223.54C371.996 223.296 372.043 223.035 372.043 222.771C372.043 222.508 371.996 222.247 371.905 222.003C371.813 221.759 371.679 221.538 371.509 221.352C371.34 221.165 371.139 221.018 370.918 220.917C370.697 220.816 370.46 220.765 370.221 220.765H286.244Z" fill="#E6E6E6"/>
<path d="M436.038 240.444H234.979V193.062H436.038V240.444ZM238.048 237.06H432.969V196.446H238.048V237.06Z" fill="#E6E6E6"/>
<path d="M102.708 251.686C102.25 251.037 101.926 250.284 101.76 249.482C101.594 248.68 101.589 247.847 101.747 247.042C101.904 246.238 102.219 245.481 102.671 244.826C103.122 244.17 103.698 243.632 104.358 243.248L103.292 230.439L110.194 227.826L111.47 245.939C111.98 247.205 112.052 248.633 111.672 249.954C111.291 251.274 110.484 252.395 109.404 253.103C108.324 253.811 107.046 254.059 105.812 253.797C104.578 253.536 103.474 252.785 102.708 251.686V251.686Z" fill="#FFB8B8"/>
<path d="M110.118 178.166C110.118 178.166 114.855 167.206 119.064 171.061C123.272 174.917 113.293 207.323 113.293 207.323L111.776 238.782L103.776 237.9L101.515 207.251L110.118 178.166Z" fill="#CCCCCC"/>
<path d="M46.5845 340.313L52.5221 345.612L73.8872 322.882L65.1239 315.061L46.5845 340.313Z" fill="#FFB8B8"/>
<path d="M46.639 336.823L58.3328 347.26L58.3333 347.261C60.3095 349.025 61.5693 351.582 61.8354 354.37C62.1016 357.159 61.3524 359.949 59.7526 362.128L59.5566 362.395L40.4106 345.307L46.639 336.823Z" fill="#2F2E41"/>
<path d="M129.106 355.024H136.746L140.38 322.535L129.105 322.535L129.106 355.024Z" fill="#FFB8B8"/>
<path d="M127.158 352.274L142.202 352.273H142.203C144.746 352.273 147.184 353.387 148.982 355.37C150.78 357.352 151.791 360.041 151.791 362.844V363.188L127.158 363.189L127.158 352.274Z" fill="#2F2E41"/>
<path d="M142.511 202.713C142.511 202.713 156.843 221.95 153.728 241.188C150.612 260.425 148.12 274.853 148.12 274.853L143.134 318.136C143.134 318.136 145.004 329.924 142.511 332.962C142.511 332.962 146.25 340.122 139.396 342.87C132.541 345.618 128.843 341.921 128.843 341.921C128.843 341.921 123.817 333.938 126.933 331.877L128.246 246.934L78.3292 318.823C78.3292 318.823 77.4116 327.568 71.016 327.662L63.3741 333.938L54.6503 328.442L59.0122 322.259C59.0122 322.259 56.5197 315.388 62.1278 314.014L94.5305 267.295L102.631 243.249C102.631 243.249 106.993 224.699 118.832 217.141V209.099L142.511 202.713Z" fill="#2F2E41"/>
<path d="M117.898 169.392C119.784 166.933 122.425 165.326 125.318 164.876C128.21 164.425 131.151 165.164 133.581 166.95L134.099 167.331C139.63 174.237 143.348 182.676 144.851 191.739L147.185 205.805L117.898 212.8L111.032 186.692C110.16 183.378 110.37 179.832 111.625 176.672C112.879 173.511 115.099 170.935 117.898 169.392V169.392Z" fill="#CCCCCC"/>
<path d="M166.015 254.677C165.203 254.384 164.459 253.899 163.835 253.255C163.212 252.611 162.724 251.824 162.406 250.95C162.089 250.076 161.949 249.135 161.996 248.195C162.044 247.255 162.277 246.337 162.681 245.507L154.233 234.107L159.264 226.756L170.99 243.041C172.209 243.881 173.107 245.186 173.512 246.707C173.918 248.228 173.803 249.861 173.19 251.295C172.577 252.73 171.507 253.866 170.185 254.489C168.862 255.112 167.379 255.179 166.015 254.677H166.015Z" fill="#FFB8B8"/>
<path d="M130.36 179.697C130.36 179.697 128.491 165.956 134.722 166.643C140.954 167.331 150.3 205.118 150.3 205.118L167.125 236.035L159.024 240.844L139.084 213.362L130.36 179.697Z" fill="#CCCCCC"/>
<path d="M141.771 159.609H112.098C111.488 159.608 110.903 159.34 110.471 158.864C110.04 158.389 109.797 157.743 109.796 157.07V142.968C109.796 137.957 111.602 133.15 114.816 129.607C118.03 126.063 122.389 124.072 126.935 124.072C131.48 124.072 135.84 126.063 139.054 129.607C142.268 133.15 144.073 137.957 144.073 142.968V157.07C144.073 157.743 143.83 158.389 143.398 158.864C142.967 159.34 142.382 159.608 141.771 159.609Z" fill="#2F2E41"/>
<path d="M130.457 159.28C137.396 159.28 143.022 153.078 143.022 145.426C143.022 137.775 137.396 131.572 130.457 131.572C123.517 131.572 117.891 137.775 117.891 145.426C117.891 153.078 123.517 159.28 130.457 159.28Z" fill="#FFB8B8"/>
<path d="M148.128 144.379H132.315L132.152 141.506L131.342 144.379H128.907L128.585 138.686L126.978 144.379H122.267V144.097C122.267 135.854 127.567 129.149 134.083 129.149H136.312C142.828 129.149 148.128 135.854 148.128 144.097V144.379Z" fill="#2F2E41"/>
<path d="M132.969 162.241C132.776 162.241 132.583 162.225 132.392 162.192L113.57 158.996V137.38C113.57 135.172 114.365 133.054 115.781 131.493C117.198 129.932 119.118 129.055 121.121 129.055H134.289L133.776 129.63C126.639 137.642 132.016 150.633 135.857 157.663C136.138 158.168 136.266 158.76 136.22 159.351C136.174 159.942 135.957 160.502 135.601 160.947C135.274 161.361 134.869 161.691 134.415 161.915C133.96 162.138 133.467 162.25 132.969 162.241Z" fill="#2F2E41"/>
<path d="M462.566 112.694C470.036 112.694 476.091 106.018 476.091 97.7822C476.091 89.5464 470.036 82.87 462.566 82.87C455.097 82.87 449.041 89.5464 449.041 97.7822C449.041 106.018 455.097 112.694 462.566 112.694Z" fill="#6C63FF"/>
<path d="M461.277 104.077L457.229 98.3384L459.583 96.3196L461.5 99.0368L467.975 91.5001L470.141 93.7621L461.277 104.077Z" fill="white"/>
</g>
<path d="M462.566 49.3327C470.036 49.3327 476.091 42.6563 476.091 34.4205C476.091 26.1848 470.036 19.5084 462.566 19.5084C455.097 19.5084 449.041 26.1848 449.041 34.4205C449.041 42.6563 455.097 49.3327 462.566 49.3327Z" fill="#6C63FF"/>
<path d="M461.277 40.7151L457.229 34.9768L459.583 32.9579L461.5 35.6751L467.975 28.1384L470.141 30.4004L461.277 40.7151Z" fill="white"/>
<path d="M436.6 58.6264H235.54V11.2438H436.6V58.6264Z" fill="white"/>
<path d="M436.6 58.6264H235.54V11.2438H436.6V58.6264Z" fill="white"/>
<path d="M261.593 46.9716C267.622 46.9716 272.51 41.5827 272.51 34.935C272.51 28.2874 267.622 22.8985 261.593 22.8985C255.564 22.8985 250.676 28.2874 250.676 34.935C250.676 41.5827 255.564 46.9716 261.593 46.9716Z" fill="#6C63FF"/>
<path d="M286.806 26.9107C286.323 26.9107 285.86 27.1221 285.519 27.4983C285.178 27.8745 284.986 28.3847 284.986 28.9168C284.986 29.4488 285.178 29.9591 285.519 30.3353C285.86 30.7115 286.323 30.9229 286.806 30.9229H419.648C420.13 30.9216 420.592 30.7097 420.932 30.3336C421.272 29.9576 421.463 29.448 421.463 28.9168C421.463 28.3856 421.272 27.876 420.932 27.4999C420.592 27.1239 420.13 26.912 419.648 26.9107H286.806Z" fill="#3F3D56"/>
<path d="M286.806 38.9472C286.323 38.9461 285.86 39.1564 285.518 39.5318C285.176 39.9072 284.983 40.417 284.982 40.9491C284.981 41.4811 285.172 41.9918 285.513 42.3688C285.853 42.7458 286.315 42.9583 286.798 42.9594H370.782C371.022 42.9598 371.258 42.9083 371.48 42.8077C371.701 42.707 371.902 42.5593 372.071 42.373C372.24 42.1867 372.374 41.9654 372.466 41.7218C372.558 41.4782 372.605 41.217 372.605 40.9533C372.605 40.6896 372.558 40.4284 372.466 40.1848C372.374 39.9412 372.24 39.7199 372.071 39.5336C371.902 39.3473 371.701 39.1996 371.48 39.0989C371.258 38.9983 371.022 38.9468 370.782 38.9472H286.806Z" fill="#3F3D56"/>
<path d="M436.6 58.6264H235.54V11.2438H436.6V58.6264ZM238.61 55.2419H433.53V14.6283H238.61V55.2419Z" fill="#CCCCCC"/>
<line x1="21.1929" y1="364.5" x2="917.209" y2="363.369" stroke="#EAFEF6"/>
<defs>
<clipPath id="clip0_4_184">
<rect width="405.032" height="365" fill="white" transform="translate(502.758)"/>
</clipPath>
<clipPath id="clip1_4_184">
<rect width="476.59" height="289.26" fill="white" transform="translate(0 74.6055)"/>
</clipPath>
</defs>
</svg>
